<svg height="70" viewBox="0 0 70 70" width="70" xmlns="http://www.w3.org/2000/svg"><g fill="#8249c8" fill-rule="evenodd"><circle cx="35" cy="35" fill-opacity=".08" r="35"/><path d="m36 0h-32c-2.26666667 0-4 1.73333333-4 4v18.6666667c0 2.1333333 1.73333333 4 4 4h21.3333333l9.3333334 9.3333333v-9.3333333h1.3333333c2.2666667 0 4-1.8666667 4-4v-18.6666667c0-2.26666667-1.7333333-4-4-4zm-6 9.33333333c1.8666667 0 3.3333333 1.46666667 3.3333333 3.33333337 0 1.8666666-1.4666666 3.3333333-3.3333333 3.3333333s-3.3333333-1.4666667-3.3333333-3.3333333c0-1.8666667 1.4666666-3.33333337 3.3333333-3.33333337zm-21.33333333 6.66666667c-1.86666667 0-3.33333334-1.4666667-3.33333334-3.3333333 0-1.8666667 1.46666667-3.33333337 3.33333334-3.33333337 1.86666663 0 3.33333333 1.46666667 3.33333333 3.33333337 0 1.8666666-1.4666667 3.3333333-3.33333333 3.3333333zm10.66666663 0c-1.8666666 0-3.3333333-1.4666667-3.3333333-3.3333333 0-1.8666667 1.4666667-3.33333337 3.3333333-3.33333337 1.8666667 0 3.3333334 1.46666667 3.3333334 3.33333337 0 1.8666666-1.4666667 3.3333333-3.3333334 3.3333333z" fill-rule="nonzero" transform="translate(16 19)"/></g></svg>